@startuml
class LoaderFragment$Companion {
+ void newInstance()
}
class LoaderFragment {
+ void onCreate(Bundle?)
+ View? onCreateView(LayoutInflater,ViewGroup?,Bundle?)
+ void onViewCreated(View,Bundle?)
}
class ProfileViewModelFactory {
}
class SearchViewModelFactory {
}
class HomeViewModel {
-  _moviesPremiers
+  moviesPremiers
-  _moviesPopular
+  moviesPopular
-  _moviesActionUSA
+  moviesActionUSA
-  _moviesTop250
+  moviesTop250
-  _moviesFranceDrams
+  moviesFranceDrams
-  _serials
+  serials
-  _personsInfo
+  personsInfo
-  _similarMovies
+  similarMovies
+ Flow<PagingData<Movie>> pagedMoviesPremiers
+ Flow<PagingData<Movie>> pagedMoviesPopular
+ Flow<PagingData<Movie>> pagedByGenreMovies
+ Flow<PagingData<Movie>> pagedMoviesTop250
+ Flow<PagingData<Movie>> pagedSerials
+ Movie loadMovieInfo(Int)
+ void loadPersons(Int)
+ List<Image> loadMovieImg(Int,String)
+ void loadSimilarMovies(Int)
+ PersonInfo loadPersonInfo(Int)
}
class FragmentMoviePage$Companion {
+ void newInstance()
}
class FragmentMoviePage {
- FragmentMoviePageBinding? _binding
-  binding
+ HomeViewModelFactory homeViewModelFactory
- HomeViewModel viewModel
+ ProfileViewModelFactory profileViewModelFactory
- ProfileViewModel profileViewModel
+ void onCreate(Bundle?)
+ View onCreateView(LayoutInflater,ViewGroup?,Bundle?)
+ void onViewCreated(View,Bundle?)
+ void onDestroy()
- String formatMinutesToHoursAndMinutes(Int)
- void onClickButton(Button,String,String,Int)
- void showDialog(Bundle)
}
class ImagesListPage {
- FragmentImagesListPageBinding? _binding
-  binding
+ HomeViewModelFactory homeViewModelFactory
- HomeViewModel viewModel
+ void onCreate(Bundle?)
+ View? onCreateView(LayoutInflater,ViewGroup?,Bundle?)
+ void onViewCreated(View,Bundle?)
+ void onDestroy()
}
class FilmsView {
-  binding
+ RecyclerView getRecycler()
+ AppCompatButton getButton()
+ AppCompatButton getShowAllButton()
}
class HomeFragment$Companion {
+ void newInstance()
}
class HomeFragment {
- FragmentHomeBinding? _binding
-  binding
+ HomeViewModelFactory homeViewModelFactory
- HomeViewModel viewModel
+  movieAdapterPremiers
+  movieAdapterPopular
+  movieAdapterActionUSA
+  movieAdapterTop250
+  movieAdapterFranceDrams
+  serialsAdapter
+ View onCreateView(LayoutInflater,ViewGroup?,Bundle?)
+ void onViewCreated(View,Bundle?)
+ void onDestroy()
- void onClickButton(Button,TextView,String)
+ void showButton()
}
class CollectionNameDialogProfile$Companion {
+ void newInstance()
}
class CollectionNameDialogProfile {
- FragmentCollectionNameDialogBinding? _binding
-  binding
+ ProfileViewModelFactory profileViewModelFactory
- ProfileViewModel viewModel
+  profileFragment
+ void onCreate(Bundle?)
+ View? onCreateView(LayoutInflater,ViewGroup?,Bundle?)
+ void onViewCreated(View,Bundle?)
+ void onDestroy()
- void showErrorDialog()
}
class MainViewModel {
}
class HomeViewModelFactory {
}
class SearchActivity {
- ActivitySearchBinding binding
+ void onCreate(Bundle?)
}
class BottomSheetDialog$Companion {
+ void newInstance()
}
class BottomSheetDialog {
- FragmentBottomSheetDialogBinding? _binding
-  binding
+ HomeViewModelFactory homeViewModelFactory
- HomeViewModel viewModel
+ ProfileViewModelFactory profileViewModelFactory
- ProfileViewModel profileViewModel
+ void onCreate(Bundle?)
+ View? onCreateView(LayoutInflater,ViewGroup?,Bundle?)
+ void onViewCreated(View,Bundle?)
+ void onDestroy()
- void showDialog(Bundle)
}
class SearchYearPicker$Companion {
+ void newInstance()
}
class SearchYearPicker {
- Int? selectedYearFrom
- Int? selectedYearUntil
- FragmentSearchYearPickerBinding? _binding
-  binding
-  yearList
-  visibleYearRange
-  adapter1
-  adapter2
+ void onCreate(Bundle?)
+ View? onCreateView(LayoutInflater,ViewGroup?,Bundle?)
+ void onViewCreated(View,Bundle?)
+ void onDestroy()
- void updateYearRange(YearPickerAdapter)
- void updateVisibleYearRange(Boolean,YearPickerAdapter)
- List<YearItem> generateYearList()
}
class ProfileFragment$Companion {
+ void newInstance()
}
class ProfileFragment {
- FragmentProfileBinding? _binding
-  binding
+ HomeViewModelFactory homeViewModelFactory
- HomeViewModel homeViewModel
+ ProfileViewModelFactory profileViewModelFactory
- ProfileViewModel profileViewModel
-  movieAdapterFromDb
-  collectionsAdapter
+ void onCreate(Bundle?)
+ View onCreateView(LayoutInflater,ViewGroup?,Bundle?)
+ void onViewCreated(View,Bundle?)
- void showDialog()
+ void onDestroy()
}
class ListPageFragment$Companion {
+ void newInstance()
}
class ListPageFragment {
- FragmentListPageBinding? _binding
-  binding
-  movieListAdapter
-  personListAdapter
-  similarListAdapter
+ HomeViewModelFactory homeViewModelFactory
- HomeViewModel viewModel
+ void onCreate(Bundle?)
+ View onCreateView(LayoutInflater,ViewGroup?,Bundle?)
+ void onViewCreated(View,Bundle?)
+ void onDestroy()
}
class ProfileListPageFragment$Companion {
+ void newInstance()
}
class ProfileListPageFragment {
- FragmentProfileListPageBinding? _binding
-  binding
-  movieListAdapter
+ ProfileViewModelFactory profileViewModelFactory
- ProfileViewModel viewModel
+ void onCreate(Bundle?)
+ View onCreateView(LayoutInflater,ViewGroup?,Bundle?)
+ void onViewCreated(View,Bundle?)
+ void onDestroy()
}
class SearchViewModel {
-  _loading
+  loading
-  _error
+  error
-  _moviesByKeywords
+  moviesByKeywords
-  _moviesByParameters
+  moviesByParameters
+ void getMoviesByParameters(Array<Int?>,Array<Int?>,String,String,Int,Int,Int,Int)
+ void getMoviesByKeyword(String)
+ List<CountryFilter> loadCountries()
+ List<GenreFilter> loadGenres()
}
class PersonPageFragment {
- FragmentPersonPageBinding? _binding
-  binding
+ HomeViewModelFactory homeViewModelFactory
- HomeViewModel viewModel
+ void onCreate(Bundle?)
+ View onCreateView(LayoutInflater,ViewGroup?,Bundle?)
+ void onViewCreated(View,Bundle?)
}
class SearchFragment$Companion {
+ void newInstance()
}
class SearchFragment {
- FragmentSearchBinding? _binding
-  binding
-  movieListAdapter
+ SearchViewModelFactory searchViewModelFactory
- SearchViewModel viewModel
+ void onCreate(Bundle?)
+ View onCreateView(LayoutInflater,ViewGroup?,Bundle?)
+ void onViewCreated(View,Bundle?)
+ void onDestroy()
}
class WelcomeActivity {
+ ProfileViewModelFactory profileViewModelFactory
- ProfileViewModel profileViewModel
-  activities
- ActivityWelcomeBinding binding
-  titleList
-  imageList
+ void onCreate(Bundle?)
+ void onPause()
- void addToList(String,Int)
- void postToList()
}
class WelcomeFragment {
- FragmentWelcomeBinding? _binding
-  binding
- MainViewModel viewModel
+ void onCreate(Bundle?)
+ View onCreateView(LayoutInflater,ViewGroup?,Bundle?)
+ void onViewCreated(View,Bundle?)
+ void onDestroy()
}
class ProfileActivity {
- ActivityProfileBinding binding
+ ProfileViewModelFactory profileViewModelFactory
- ProfileViewModel profileViewModel
+ void onCreate(Bundle?)
}
class SelectGenreFragment$Companion {
+ void newInstance()
}
class SelectGenreFragment {
- FragmentSelectGenreBinding? _binding
-  binding
+ SearchViewModelFactory searchViewModelFactory
- SearchViewModel viewModel
+ void onCreate(Bundle?)
+ View? onCreateView(LayoutInflater,ViewGroup?,Bundle?)
+ void onViewCreated(View,Bundle?)
}
class ErrorFragment$Companion {
+ void newInstance()
}
class ErrorFragment {
- FragmentErrorBinding? _binding
-  binding
+ void onCreate(Bundle?)
+ View? onCreateView(LayoutInflater,ViewGroup?,Bundle?)
+ void onDestroy()
+ void onViewCreated(View,Bundle?)
}
class SelectCountryFragment$Companion {
+ void newInstance()
}
class SelectCountryFragment {
- FragmentSelectCountryBinding? _binding
-  binding
+ SearchViewModelFactory searchViewModelFactory
- SearchViewModel viewModel
+ void onCreate(Bundle?)
+ View? onCreateView(LayoutInflater,ViewGroup?,Bundle?)
+ void onViewCreated(View,Bundle?)
}
class PersonMoviesListPageFragment$Companion {
+ void newInstance()
}
class PersonMoviesListPageFragment {
- FragmentPersonMoviesListPageBinding? _binding
-  binding
-  movieListAdapter
+ HomeViewModelFactory homeViewModelFactory
- HomeViewModel viewModel
+ View onCreateView(LayoutInflater,ViewGroup?,Bundle?)
+ void onViewCreated(View,Bundle?)
+ void onDestroy()
}
class HomeActivity {
- ActivityHomeBinding binding
+ void onCreate(Bundle?)
}
class SettingsSearchFragment$Companion {
+ void newInstance(String,String)
}
class SettingsSearchFragment {
- FragmentSettingsSearchBinding? _binding
-  binding
+ SearchViewModelFactory searchViewModelFactory
- SearchViewModel viewModel
- SharedPreferences preferences
+ void onCreate(Bundle?)
+ View? onCreateView(LayoutInflater,ViewGroup?,Bundle?)
+ void onViewCreated(View,Bundle?)
- void saveToSharedPreferences(String,Any)
- Any retrieveFromSharedPreferences(String,Any)
}
class ProfileViewModel {
-  _movies
+ LiveData<List<Movie>> movies
-  _moviesWithInfo
+  moviesWithInfo
-  _collections
+  collections
+ void insertMovieToDb(Int,String)
+ void getMoviesFromCollection(String)
+ void getFavoritesMovies()
+ void createNewCollection(String)
+ Boolean checkNamesCollections(String)
+ void getAllCollections()
+ void insertCollections()
+ void refresh()
}
class CollectionNameDialog$Companion {
+ void newInstance()
}
class CollectionNameDialog {
- FragmentCollectionNameDialogBinding? _binding
-  binding
+ ProfileViewModelFactory profileViewModelFactory
- ProfileViewModel viewModel
+ void onCreate(Bundle?)
+ View? onCreateView(LayoutInflater,ViewGroup?,Bundle?)
+ void onViewCreated(View,Bundle?)
+ void onDestroy()
- void showDialog(Bundle)
- void showErrorDialog()
}
class ViewPagerAdapter {
}
class Pager2ViewHolder {
}


Fragment <|-- LoaderFragment


ViewModel <|-- HomeViewModel
Fragment <|-- FragmentMoviePage
Fragment <|-- ImagesListPage
LinearLayout <|-- FilmsView
Fragment <|-- HomeFragment
DialogFragment <|-- CollectionNameDialogProfile
ViewModel <|-- MainViewModel

AppCompatActivity <|-- SearchActivity
DialogFragment <|-- BottomSheetDialog
Fragment <|-- SearchYearPicker
Fragment <|-- ProfileFragment
Fragment <|-- ListPageFragment
Fragment <|-- ProfileListPageFragment
ViewModel <|-- SearchViewModel
Fragment <|-- PersonPageFragment
Fragment <|-- SearchFragment
AppCompatActivity <|-- WelcomeActivity
Fragment <|-- WelcomeFragment
AppCompatActivity <|-- ProfileActivity
Fragment <|-- SelectGenreFragment
DialogFragment <|-- ErrorFragment
Fragment <|-- SelectCountryFragment
Fragment <|-- PersonMoviesListPageFragment
AppCompatActivity <|-- HomeActivity
Fragment <|-- SettingsSearchFragment
ViewModel <|-- ProfileViewModel
DialogFragment <|-- CollectionNameDialog


@enduml